<mxfile host="app.diagrams.net" modified="2021-02-01T22:05:27.262Z" agent="5.0 (Macintosh; Intel Mac OS X 10_13_6) AppleWebKit/537.36 (KHTML, like Gecko) Chrome/88.0.4324.96 Safari/537.36" etag="ExEscH2IwuvU9iBvko_V" version="14.2.9" type="github">
  <diagram id="5rVtg-gv1CVN5Wzb6H3v" name="Page-1">
    <mxGraphModel dx="1026" dy="578" grid="1" gridSize="10" guides="1" tooltips="1" connect="1" arrows="1" fold="1" page="1" pageScale="1" pageWidth="827" pageHeight="1169" math="0" shadow="0">
      <root>
        <mxCell id="0" />
        <mxCell id="1" parent="0" />
        <mxCell id="5dns3X5OmqcmjHkYG2os-1" value="Category" style="shape=table;startSize=30;container=1;collapsible=1;childLayout=tableLayout;fixedRows=1;rowLines=0;fontStyle=1;align=center;resizeLast=1;" vertex="1" parent="1">
          <mxGeometry x="470" y="150" width="180" height="80" as="geometry" />
        </mxCell>
        <mxCell id="5dns3X5OmqcmjHkYG2os-2" value="" style="shape=partialRectangle;collapsible=0;dropTarget=0;pointerEvents=0;fillColor=none;top=0;left=0;bottom=1;right=0;points=[[0,0.5],[1,0.5]];portConstraint=eastwest;" vertex="1" parent="5dns3X5OmqcmjHkYG2os-1">
          <mxGeometry y="30" width="180" height="20" as="geometry" />
        </mxCell>
        <mxCell id="5dns3X5OmqcmjHkYG2os-3" value="PK" style="shape=partialRectangle;connectable=0;fillColor=none;top=0;left=0;bottom=0;right=0;fontStyle=1;overflow=hidden;" vertex="1" parent="5dns3X5OmqcmjHkYG2os-2">
          <mxGeometry width="30" height="20" as="geometry" />
        </mxCell>
        <mxCell id="5dns3X5OmqcmjHkYG2os-4" value="id" style="shape=partialRectangle;connectable=0;fillColor=none;top=0;left=0;bottom=0;right=0;align=left;spacingLeft=6;fontStyle=5;overflow=hidden;" vertex="1" parent="5dns3X5OmqcmjHkYG2os-2">
          <mxGeometry x="30" width="150" height="20" as="geometry" />
        </mxCell>
        <mxCell id="5dns3X5OmqcmjHkYG2os-5" value="" style="shape=partialRectangle;collapsible=0;dropTarget=0;pointerEvents=0;fillColor=none;top=0;left=0;bottom=0;right=0;points=[[0,0.5],[1,0.5]];portConstraint=eastwest;" vertex="1" parent="5dns3X5OmqcmjHkYG2os-1">
          <mxGeometry y="50" width="180" height="20" as="geometry" />
        </mxCell>
        <mxCell id="5dns3X5OmqcmjHkYG2os-6" value="" style="shape=partialRectangle;connectable=0;fillColor=none;top=0;left=0;bottom=0;right=0;editable=1;overflow=hidden;" vertex="1" parent="5dns3X5OmqcmjHkYG2os-5">
          <mxGeometry width="30" height="20" as="geometry" />
        </mxCell>
        <mxCell id="5dns3X5OmqcmjHkYG2os-7" value="description" style="shape=partialRectangle;connectable=0;fillColor=none;top=0;left=0;bottom=0;right=0;align=left;spacingLeft=6;overflow=hidden;" vertex="1" parent="5dns3X5OmqcmjHkYG2os-5">
          <mxGeometry x="30" width="150" height="20" as="geometry" />
        </mxCell>
        <mxCell id="5dns3X5OmqcmjHkYG2os-28" style="edgeStyle=orthogonalEdgeStyle;rounded=0;orthogonalLoop=1;jettySize=auto;html=1;entryX=0;entryY=0.5;entryDx=0;entryDy=0;" edge="1" parent="1" source="5dns3X5OmqcmjHkYG2os-14" target="5dns3X5OmqcmjHkYG2os-2">
          <mxGeometry relative="1" as="geometry" />
        </mxCell>
        <mxCell id="5dns3X5OmqcmjHkYG2os-14" value="Costs" style="shape=table;startSize=30;container=1;collapsible=1;childLayout=tableLayout;fixedRows=1;rowLines=0;fontStyle=1;align=center;resizeLast=1;" vertex="1" parent="1">
          <mxGeometry x="140" y="130" width="180" height="120" as="geometry" />
        </mxCell>
        <mxCell id="5dns3X5OmqcmjHkYG2os-15" value="" style="shape=partialRectangle;collapsible=0;dropTarget=0;pointerEvents=0;fillColor=none;top=0;left=0;bottom=0;right=0;points=[[0,0.5],[1,0.5]];portConstraint=eastwest;" vertex="1" parent="5dns3X5OmqcmjHkYG2os-14">
          <mxGeometry y="30" width="180" height="20" as="geometry" />
        </mxCell>
        <mxCell id="5dns3X5OmqcmjHkYG2os-16" value="PK" style="shape=partialRectangle;connectable=0;fillColor=none;top=0;left=0;bottom=0;right=0;fontStyle=1;overflow=hidden;" vertex="1" parent="5dns3X5OmqcmjHkYG2os-15">
          <mxGeometry width="60" height="20" as="geometry" />
        </mxCell>
        <mxCell id="5dns3X5OmqcmjHkYG2os-17" value="Id" style="shape=partialRectangle;connectable=0;fillColor=none;top=0;left=0;bottom=0;right=0;align=left;spacingLeft=6;fontStyle=5;overflow=hidden;" vertex="1" parent="5dns3X5OmqcmjHkYG2os-15">
          <mxGeometry x="60" width="120" height="20" as="geometry" />
        </mxCell>
        <mxCell id="5dns3X5OmqcmjHkYG2os-18" value="" style="shape=partialRectangle;collapsible=0;dropTarget=0;pointerEvents=0;fillColor=none;top=0;left=0;bottom=1;right=0;points=[[0,0.5],[1,0.5]];portConstraint=eastwest;" vertex="1" parent="5dns3X5OmqcmjHkYG2os-14">
          <mxGeometry y="50" width="180" height="20" as="geometry" />
        </mxCell>
        <mxCell id="5dns3X5OmqcmjHkYG2os-19" value="FK1" style="shape=partialRectangle;connectable=0;fillColor=none;top=0;left=0;bottom=0;right=0;fontStyle=1;overflow=hidden;" vertex="1" parent="5dns3X5OmqcmjHkYG2os-18">
          <mxGeometry width="60" height="20" as="geometry" />
        </mxCell>
        <mxCell id="5dns3X5OmqcmjHkYG2os-20" value="category_id" style="shape=partialRectangle;connectable=0;fillColor=none;top=0;left=0;bottom=0;right=0;align=left;spacingLeft=6;fontStyle=5;overflow=hidden;" vertex="1" parent="5dns3X5OmqcmjHkYG2os-18">
          <mxGeometry x="60" width="120" height="20" as="geometry" />
        </mxCell>
        <mxCell id="5dns3X5OmqcmjHkYG2os-21" value="" style="shape=partialRectangle;collapsible=0;dropTarget=0;pointerEvents=0;fillColor=none;top=0;left=0;bottom=0;right=0;points=[[0,0.5],[1,0.5]];portConstraint=eastwest;" vertex="1" parent="5dns3X5OmqcmjHkYG2os-14">
          <mxGeometry y="70" width="180" height="20" as="geometry" />
        </mxCell>
        <mxCell id="5dns3X5OmqcmjHkYG2os-22" value="" style="shape=partialRectangle;connectable=0;fillColor=none;top=0;left=0;bottom=0;right=0;editable=1;overflow=hidden;" vertex="1" parent="5dns3X5OmqcmjHkYG2os-21">
          <mxGeometry width="60" height="20" as="geometry" />
        </mxCell>
        <mxCell id="5dns3X5OmqcmjHkYG2os-23" value="date" style="shape=partialRectangle;connectable=0;fillColor=none;top=0;left=0;bottom=0;right=0;align=left;spacingLeft=6;overflow=hidden;" vertex="1" parent="5dns3X5OmqcmjHkYG2os-21">
          <mxGeometry x="60" width="120" height="20" as="geometry" />
        </mxCell>
        <mxCell id="5dns3X5OmqcmjHkYG2os-24" value="" style="shape=partialRectangle;collapsible=0;dropTarget=0;pointerEvents=0;fillColor=none;top=0;left=0;bottom=0;right=0;points=[[0,0.5],[1,0.5]];portConstraint=eastwest;" vertex="1" parent="5dns3X5OmqcmjHkYG2os-14">
          <mxGeometry y="90" width="180" height="20" as="geometry" />
        </mxCell>
        <mxCell id="5dns3X5OmqcmjHkYG2os-25" value="" style="shape=partialRectangle;connectable=0;fillColor=none;top=0;left=0;bottom=0;right=0;editable=1;overflow=hidden;" vertex="1" parent="5dns3X5OmqcmjHkYG2os-24">
          <mxGeometry width="60" height="20" as="geometry" />
        </mxCell>
        <mxCell id="5dns3X5OmqcmjHkYG2os-26" value="description" style="shape=partialRectangle;connectable=0;fillColor=none;top=0;left=0;bottom=0;right=0;align=left;spacingLeft=6;overflow=hidden;" vertex="1" parent="5dns3X5OmqcmjHkYG2os-24">
          <mxGeometry x="60" width="120" height="20" as="geometry" />
        </mxCell>
      </root>
    </mxGraphModel>
  </diagram>
</mxfile>
